<?xml version="1.0" encoding="utf-8"?>
<!-- Generator: Adobe Illustrator 22.1.0, SVG Export Plug-In . SVG Version: 6.00 Build 0)  -->
<svg version="1.1" id="Capa_1" xmlns="http://www.w3.org/2000/svg" xmlns:xlink="http://www.w3.org/1999/xlink" x="0px" y="0px"
	 viewBox="0 0 100 100" style="enable-background:new 0 0 100 100;" xml:space="preserve">
<style type="text/css">
	.st0{fill:#282B2F;}
</style>
<path class="st0" d="M89,56c0,7.6,0,15.1,0,22.7c-0.1,0.1-0.1,0.2-0.2,0.3c-0.9,3.5-3.5,5.3-6.8,4.8c-3-0.4-5.1-2.9-5.1-6.3
	c0-1,0-2.1,0-3.2c-18,1-35.9,1-53.9,0c0,1.4,0,2.6,0,3.8c-0.1,2.4-1.3,4.3-3.5,5.3c-2.2,1-4.4,0.8-6.2-0.8c-1-0.9-1.6-2.4-2.3-3.6
	c0-7.6,0-15.3,0-22.9c0.1-0.2,0.2-0.4,0.2-0.5c0.5-3.3,2.1-6,4.8-8c0.3-0.3,0.6-0.7,0.7-1.1c1.8-5,3.6-9.9,5.3-15
	c1.2-3.7,3.3-6.7,7-8.4c0-1,0.1-2.1,0-3.1c-0.1-1.8,0.5-3.1,2.1-3.9c4.3,0,8.5,0,12.8,0c0,1.9,0,3.9,0,5.8c4.1,0,8,0,12.1,0
	c0-2,0-3.9,0-5.8c4.3,0,8.5,0,12.8,0c1.6,0.8,2.3,2.1,2.1,3.9c-0.1,0.8-0.1,1.6,0,2.3c0,0.3,0.3,0.8,0.6,1c3.1,1.6,5,4.2,6.2,7.5
	c1.8,5.2,3.6,10.3,5.5,15.5c0.2,0.6,0.7,1.1,1.1,1.6c1.1,1.5,2.5,2.8,3.4,4.4C88.4,53.3,88.6,54.7,89,56z M50,27.8
	c-2.4,0-4.7,0-7.1,0c-2.9,0-5.8,0-8.6,0c-2.8,0-4.9,1.2-5.9,3.8c-1.2,3.2-2.3,6.4-3.4,9.7c-0.6,1.8,0.7,3.2,2.6,2.9
	c2.3-0.3,4.5-0.6,6.8-0.8c12.7-1.2,25.3-1,37.9,0.8c2.6,0.4,3.6-0.9,2.8-3.4c-1-2.8-2-5.5-2.9-8.2c-1.2-3.4-3.1-4.7-6.7-4.7
	C60.2,27.8,55.1,27.8,50,27.8z M50,60.3C50,60.3,50,60.3,50,60.3c2.9,0,5.8,0,8.6,0c2,0,3.3-1.2,3.3-2.9c0-1.7-1.3-3-3.2-3
	c-5.8,0-11.7,0-17.5,0c-0.8,0-1.8,0.5-2.4,1c-0.9,0.8-1,1.9-0.5,3c0.5,1.1,1.4,1.8,2.7,1.8C43.9,60.3,47,60.3,50,60.3z M71,58.8
	c0,2.5,2,4.5,4.4,4.5c2.5,0,4.5-2,4.5-4.4c0-2.4-2-4.4-4.4-4.5C73.1,54.3,71,56.3,71,58.8z M29,58.8c0-2.4-2.1-4.5-4.5-4.4
	c-2.4,0-4.4,2-4.5,4.4c0,2.4,2,4.5,4.5,4.5C27,63.3,29,61.3,29,58.8z"/>
</svg>
