<?xml version="1.0" encoding="utf-8"?>
<!-- Generator: Adobe Illustrator 22.1.0, SVG Export Plug-In . SVG Version: 6.00 Build 0)  -->
<svg version="1.1" id="Capa_1" xmlns="http://www.w3.org/2000/svg" xmlns:xlink="http://www.w3.org/1999/xlink" x="0px" y="0px"
	 viewBox="0 0 462.7 352" fill="#282b30" style="enable-background:new 0 0 462.7 352;" xml:space="preserve">
<path d="M290,291.2c-3.4-2.5-5.4-5.6-5.6-10c-0.1-3.1-1.9-5.8-5.2-6.7c-3.3-1-3.9-3.2-3.6-6.1c0.3-3.1-1.3-6.8,3.3-8.4
	c3.7-1.3,5.7-4.3,5.5-8.1c-0.1-3.8-2.1-6.6-6-7.8c-3-0.9-3.1-3.2-2.8-5.6c0.4-2.9-1.7-6.6,2.6-8.2c3.8-1.5,6.2-4.2,6.2-8.2
	c0-4-2.2-6.9-6.2-8.1c-3.1-0.9-2.8-3.5-2.6-5.7c0.3-2.7-1.6-6.3,2.4-7.8c3.9-1.6,6.5-4.3,6.4-8.6c-0.1-4-2.7-6.4-6.4-8.1
	c-3.6-1.5-3.5-11.2-0.1-13.2c9-5.5,8.9-11.4-0.1-16.8c-3.3-2-3.1-11.6,0.4-13.3c3.7-1.7,6.2-4.2,6.3-8.2c0.1-4.3-2.6-6.8-6.5-8.5
	c-3.5-1.5-3.4-11.2,0-13.2c9-5.4,8.9-11.2-0.3-16.8c-3-1.8-3.1-11.5,0.1-13c4.5-2,6.5-5.2,7-10c0.5-4.9,3.8-7.8,8.8-7.8
	c25.5-0.1,51-0.8,76.5,0.3c16.2,0.7,27.1,10.8,33.1,25.8c0.7,1.7,1.2,3.5,1.8,5.2c0,55.3,0,110.7,0,166c-4.5,16.1-14.8,26.6-31,31
	C346,291.2,318,291.2,290,291.2z"/>
<path d="M57,94.2c4.7-16.2,14.6-27,31.4-30.7c2.1-0.5,4.3-0.6,6.4-0.6c49.8,0,99.6,0,149.4,0c2.9,0,5.6,0.3,7.9,2.3
	c3,2.8,4,6.2,2.7,10c-1.2,3.5-3.8,5.9-7.7,6.3c-1.8,0.2-3.7,0.1-5.5,0.1c-47.5,0-94.9,0-142.4,0c-15.8,0-23.9,8.2-23.9,24.1
	c0,8.2,0.2,16.3-0.1,24.5c-0.2,4.1,1.3,5.7,5.2,6.9c31.1,9.9,44,46.3,25.9,72.9c-6.4,9.4-14.9,16.2-25.9,19.3
	c-4.3,1.2-5.5,3.4-5.2,7.4c0.3,3.3,0.1,6.7,0.1,10c0,18.6,7.5,26.1,25.9,26.1c45.5,0,90.9,0,136.4,0c1.7,0,3.3,0.1,5,0
	c5.2-0.4,9.9,0.5,12,5.9c2.2,5.4-0.6,9.3-4.7,12.5c-54,0-108,0-162,0c-16.2-4.5-26.5-14.8-31-31c0-14,0-28,0-42
	c2.3-3.6,5.5-5.5,10-5.5c2,0,4-0.5,5.9-1c15-3.7,23.8-17.5,22.5-30.8c-1.6-15.7-12.5-26-28.3-27.3c-4.4-0.4-7.6-2-10-5.5
	C57,130.2,57,112.2,57,94.2z"/>
<path d="M186.5,122.9c14.3,0,28.6,0,42.9,0c6.9,0,11,3.6,10.9,9.5c-0.1,5.6-4.1,9.2-10.7,9.2c-29.1,0-58.2,0-87.3,0
	c-6.7,0-10.5-3.5-10.6-9.3c0-5.9,3.7-9.3,10.4-9.4C156.9,122.8,171.7,122.9,186.5,122.9z"/>
<path d="M185.5,201.5c-14.6,0-29.3,0.1-43.9,0c-6.5,0-10.4-4.4-9.8-10.5c0.5-5.1,4.1-8.1,10.1-8.2c15.8-0.1,31.6,0,47.4,0
	c13,0,26,0,38.9,0c8,0,12.1,3.2,12.2,9.2c0.1,6.1-4.1,9.5-11.9,9.5C214.1,201.6,199.8,201.6,185.5,201.5z"/>
<path d="M170.9,231.5c-9.5,0-19,0-28.4,0c-7,0-10.9-3.6-10.8-9.5c0.1-5.9,3.8-9.1,10.7-9.1c19.1,0,38.2,0,57.4,0
	c6.6,0,10.6,3.6,10.6,9.3c0,5.7-4,9.4-10.5,9.4C190.2,231.6,180.5,231.5,170.9,231.5z"/>
<path d="M156,152.9c5,0,10-0.1,14.9,0c5.6,0.2,9.4,4.1,9.3,9.5c-0.1,5.1-3.8,9-9.2,9.1c-10.1,0.2-20.3,0.2-30.4,0
	c-5.5-0.1-9-3.9-9-9.2c0-5.4,3.4-9.1,8.9-9.3C145.7,152.7,150.9,152.9,156,152.9C156,152.9,156,152.9,156,152.9z"/>
<path d="M216,152.9c5,0,10-0.1,14.9,0c5.6,0.2,9.4,4.1,9.3,9.5c-0.1,5.1-3.8,9-9.2,9.1c-10.1,0.2-20.3,0.2-30.4,0
	c-5.5-0.1-9-3.9-9-9.2c0-5.4,3.4-8.9,8.9-9.3c0.3,0,0.7,0,1,0C206.4,152.9,211.2,152.9,216,152.9z"/>
<path d="M230.8,213c5-0.1,9.8,4.5,9.8,9.3c0,5.1-3.9,9.3-8.9,9.4c-5.4,0.1-10-4.2-10.1-9.5C221.7,217.4,225.9,213.1,230.8,213z"/>
</svg>
