<?xml version="1.0" encoding="utf-8"?>
<!-- Generator: Adobe Illustrator 22.1.0, SVG Export Plug-In . SVG Version: 6.00 Build 0)  -->
<svg version="1.1" id="Capa_1" xmlns="http://www.w3.org/2000/svg" xmlns:xlink="http://www.w3.org/1999/xlink" x="0px" y="0px"
	 viewBox="0 0 462.7 352" fill="#f5841f" style="enable-background:new 0 0 462.7 352;" xml:space="preserve">
<g>
	<path d="M231.1,191c6.5-6.6,13.3-11.8,22.7-12.2c10.5-0.5,20.9-1.4,31.4-2.1c6.8-0.4,13.6-0.8,21.4-1.2
		c-21.9-11.1-128.3-11.1-150.6-0.1c15.8,0.9,30.5,2,45.3,2.7C212.9,178.6,223.4,181.1,231.1,191z"/>
	<path d="M454.5,291h-66.3c2.4-3.5,3.3-8,3.2-13.4c-0.5-32.6-0.3-65.3-0.6-98c-0.2-17.7-6-33.3-19.5-45.3c-3.7-3.3-7.3-6.7-11-10.1
		c0.2-0.5,0.4-1,0.6-1.5c1.7-0.1,3.3-0.3,5-0.4c3.5-0.2,7-0.1,10.5-0.5c6.3-0.7,7.3-2.7,6.7-8.9c-0.6-6.5-3.7-10-9.9-11
		c-1.1-0.2-2.3-0.5-3.4-0.9c-7.1-2.6-13.1-1.6-17.3,5.7c-4.7-8.6-8.4-17.3-13.7-25c-5-7.3-10.9-14.4-17.9-19.8
		c-4.6-3.5-11.7-4.6-17.8-5.1c-14.4-1.3-28.9-1.5-43.4-2.2c-0.8,0-53.4-0.7-53.4-0.3c-10.6,0.5-20.6,0.8-30.5,1.4
		c-8.3,0.5-16.6,1.1-24.9,2.1c-7.6,0.9-13.5,5.4-17.7,11.2c-6.9,9.5-12.7,19.8-18.9,29.8c-1.5,2.4-2.5,5-3.3,6.8
		c-3.6-2-7.1-5.7-10.5-5.6c-6,0.2-12.6,1.6-17.4,4.8c-2.9,1.9-3.6,8.3-3.6,12.6c0,1.5,5,3.8,7.9,4.2c4.6,0.7,9.4,0.2,14.2,0.2
		c0.2,0.5,0.3,1,0.5,1.6c-4.2,4.2-8.2,8.6-12.5,12.6c-11.8,11-17.2,25-17.5,40.6c-0.6,35-0.5,69.9-0.7,104.9c0,3.8,1,6.9,2.8,9.3
		H7.8c-3.9,0-7,3.1-7,7s3.1,7,7,7h446.7c3.9,0,7-3.1,7-7S458.4,291,454.5,291z M375.7,282c-9.8,0-19.5,0-29.6,0
		c-1.6-12.5-1.6-12.4,10-14.1c6.5-0.9,12.9-2.1,19.6-3.2C375.7,269.9,375.7,275.8,375.7,282z M148.9,75.5c3.7-2.8,9.7-3.3,14.7-3.7
		c45.2-3.4,90.5-3.2,135.7-0.2c9.4,0.6,17.1,3.6,22.3,11.8c2.6,4.1,5.5,8,7.9,12.1c2,3.4,3.6,7,5.7,11.2c-69.6,0-138.3,0-207.6,0
		C133.2,94.9,138.6,83.2,148.9,75.5z M88.9,166.6c0.2-1.3,0.7-2.5,1-3.4c0.8,2.7,0.9,6.5,2.7,8.1c2.1,1.8,5.8,2,8.9,2.4
		c5.8,0.7,11.7,0.6,17.4,1.7c10.8,2,19.5-2,28.1-8.4c-13.8-13.3-32.6-11.7-49.1-16.3c-0.4-0.6-0.9-1.1-1.3-1.7
		c3.1-2.5,6.5-4.7,9.1-7.6c4.7-5.3,8.8-11.1,13.3-16.6c0.8-1,2.2-1.8,3.4-2.2c1-0.4,2.3-0.1,3.5-0.1c70.3,0,140.6,0,210.9-0.1
		c4.3,0,6.2,1.4,8.3,5.1c2.6,4.7,6.7,8.6,10.3,12.7c3.1,3.4,6.4,6.6,10.3,10.6c-6.8,1.2-12.5,2-18.2,3.2c-5.7,1.2-11.5,2.1-16.9,4.1
		c-5.3,2-10.2,5.2-16.1,8.3c9,6.3,16.7,10.8,26.8,9.3c6.6-1,13.3-1,19.9-1.9c9.2-1.2,11-0.8,11.9-10.9c0.9,6.5,2.8,13,2.5,19.4
		c-0.6,18.1-1.9,36.2-3.4,54.3c-1.2,14.9-1.5,14.6-17.4,16.3c-8.1,0.9-16.2,1.7-24.3,2.8c-3.4,0.5-5.9-0.3-8.2-3.1
		c-5.3-6.4-11-12.5-16.4-18.8c-7.2-8.4-16-12.3-27.2-12.2c-31.7,0.2-63.3,0.2-95,0c-11.1-0.1-20,3.7-27.2,12.1
		c-5.5,6.5-11,12.9-16.9,19.1c-1.6,1.6-4.5,3.1-6.6,2.9c-11.6-1-23.2-2.2-34.7-4c-2.5-0.4-6.3-3.3-6.6-5.5
		C88.2,219.6,83.8,193.3,88.9,166.6z M306.4,257.1c-50.7,3.2-99.8,3.2-150.3,0c6-6.5,10.8-12.4,16.4-17.4c2.2-2,6.1-2.8,9.2-2.8
		c33.1-0.2,66.2-0.2,99.4,0c3.4,0,7.5,1.3,9.9,3.5C296.3,245.1,300.7,250.7,306.4,257.1z M116.9,282.1c-10.2,0-19.9,0-30,0
		c0-6.1,0-12,0-17.2c8.8,1.3,17.7,2.7,26.6,3.8c2.4,0.3,3.5,1.2,3.4,3.7C116.8,275.6,116.9,278.7,116.9,282.1z M132.2,271.7
		c33.4,1,66.2,2.7,99.1,2.8c32.7,0,65.5-1.7,99.1-2.7c-0.3,6.6-0.7,13.8,2.8,19.2H129.4C132.9,285.6,132.5,278.5,132.2,271.7z"/>
</g>
</svg>
