<?xml version="1.0" encoding="utf-8"?>
<!-- Generator: Adobe Illustrator 22.1.0, SVG Export Plug-In . SVG Version: 6.00 Build 0)  -->
<svg version="1.1" id="Capa_1" xmlns="http://www.w3.org/2000/svg" xmlns:xlink="http://www.w3.org/1999/xlink" x="0px" y="0px"
	 viewBox="0 0 100 100" style="enable-background:new 0 0 100 100;" xml:space="preserve">
<style type="text/css">
	.st0{fill:none;}
	.st1{fill:#2B2B2B;}
</style>
<path class="st0" d="M25.4,73.9C36.1,85,53.9,86.1,65.7,76.3c-14-14-28-28-42-42C14.9,45,14.2,62.3,25.4,73.9z"/>
<g>
	<path class="st1" d="M61,46.2c-0.6-3.8-3.4-6.6-7.2-7.2c-3.8-0.6-7,1.3-9.5,6.1C37.2,38,30.3,31,23.4,23.9
		c-5.8,5.2-10,11.3-11.9,18.6c-0.7,2.5-1,5.2-1.5,7.7c0,1.6,0,3.2,0,4.8c0.5,2.4,0.8,4.9,1.4,7.3c4,15,17,25.9,32.4,27.3
		c0.4,0,0.7,0.2,1.1,0.2c1.6,0,3.2,0,4.8,0c1.3-0.2,2.5-0.4,3.8-0.6c9-1.5,16.4-5.9,22.6-12.8C69,69.7,62,62.8,54.9,55.8
		C59.6,53.2,61.6,50,61,46.2z M65.7,76.3c-11.8,9.7-29.6,8.7-40.3-2.4C14.2,62.3,14.9,45,23.7,34.3C37.7,48.3,51.7,62.3,65.7,76.3z"
		/>
	<path class="st1" d="M88.9,38.4c-3.2-14-15.7-25.5-29.8-27.8c-1.1-0.2-2.2-0.4-3.3-0.6c-1,0-2.1,0-3.1,0c0,2.2,0,4.5,0,6.8
		c8.5,0.3,15.7,3.1,21.7,9c6,5.9,8.8,13.2,9,21.7c2.3,0,4.5,0,6.7,0c0-1,0-2.1,0-3.1C89.6,42.3,89.3,40.3,88.9,38.4z"/>
	<path class="st1" d="M52.6,23.7c0,2.2,0,4.3,0,6.6c4.7,0.2,8.7,1.8,12,5.1c3.3,3.3,4.8,7.4,5,12c1.2,0,2.3,0,3.4,0
		c1.1,0,2.2,0,3.3,0C76.4,33.5,64.3,23.3,52.6,23.7z"/>
</g>
</svg>
