<?xml version="1.0" encoding="utf-8"?>
<!-- Generator: Adobe Illustrator 22.1.0, SVG Export Plug-In . SVG Version: 6.00 Build 0)  -->
<svg version="1.1" id="Capa_1" xmlns="http://www.w3.org/2000/svg" xmlns:xlink="http://www.w3.org/1999/xlink" x="0px" y="0px"
	 viewBox="0 0 559.8 82.2" style="enable-background:new 0 0 559.8 82.2;" xml:space="preserve">
<style type="text/css">
	.st0{fill:#EF8427;}
	.st1{fill:#FFFFFF;}
</style>
<g>
	<path class="st0" d="M174.7,79.2h-58.6c-0.1-2-0.4-3.8-0.9-5.7l-0.2-0.9l13.5-5.4c0.3-0.1,0.6-0.4,0.7-0.7c0.1-0.3,0.2-0.7,0-1.1
		c-0.2-0.5-0.7-0.9-1.3-0.9c-0.2,0-0.3,0-0.5,0.1L114.1,70l-0.4-0.9c-1.1-2.4-2.5-4.7-4.2-6.7l-0.6-0.7l23.8-22.6
		c0.3-0.2,0.4-0.6,0.4-0.9c0-0.4-0.1-0.7-0.4-0.9c-0.3-0.3-0.6-0.4-1-0.4c-0.3,0-0.7,0.1-0.9,0.4L107,59.9l-0.7-0.6
		c-1.7-1.5-3.6-2.7-5.7-3.7l-0.9-0.4l5.1-11.9c0.1-0.3,0.1-0.7,0-1s-0.4-0.6-0.7-0.7c-0.2-0.1-0.3-0.1-0.5-0.1c-0.5,0-1,0.3-1.2,0.8
		l-5.2,12L96.3,54c-2-0.6-3.8-1-6.6-1.2l-0.9-0.1V37.2c0-0.7-0.6-1.3-1.4-1.3S86,36.5,86,37.2v15.4l-0.9,0.1
		c-1.8,0.2-4.9,0.7-7.3,1.5l-0.9,0.3l-5.2-12.4c-0.2-0.5-0.7-0.8-1.2-0.8c-0.2,0-0.3,0-0.5,0.1c-0.3,0.1-0.6,0.4-0.7,0.7
		s-0.1,0.7,0,1l5.3,12.4L74,56.1c-1.9,1-3.7,2.3-5.3,3.8L68,60.4L43.6,37.2c-0.2-0.2-0.6-0.4-0.9-0.4c-0.4,0-0.7,0.1-1,0.4
		c-0.2,0.3-0.4,0.6-0.4,0.9c0,0.4,0.2,0.7,0.4,0.9l24.4,23.2l-0.6,0.7c-1.6,1.9-2.8,4.1-3.8,6.4l-0.4,0.9L47,64.8
		c-0.2-0.1-0.3-0.1-0.5-0.1c-0.5,0-1,0.3-1.2,0.8c-0.1,0.3-0.1,0.7,0,1s0.4,0.6,0.7,0.7l14.6,5.9L60.4,74c-0.4,1.8-0.7,3.4-0.8,5.2
		H1.2C0.6,79.2,0,80,0,80.7s0.6,1.5,1.2,1.5h173.4c0.7,0,1.2-0.8,1.2-1.5C175.9,80,175.4,79.2,174.7,79.2z M87.8,55.1
		c13.8,0,25.1,10.7,25.9,24.1H61.9C62.6,65.8,74,55.1,87.8,55.1z"/>
	<path class="st0" d="M87.5,10.7c0.8,0,1.4-0.6,1.4-1.3V1.3c0-0.7-0.6-1.3-1.4-1.3s-1.4,0.6-1.4,1.3v8.1
		C86.1,10.1,86.8,10.7,87.5,10.7z"/>
	<path class="st0" d="M87.5,29.9c0.8,0,1.4-0.6,1.4-1.3V18.1c0-0.7-0.6-1.3-1.4-1.3s-1.4,0.6-1.4,1.3v10.4
		C86.1,29.3,86.8,29.9,87.5,29.9z"/>
	<path class="st0" d="M35.2,32.7c0.2,0.2,0.6,0.4,0.9,0.4c0.4,0,0.7-0.1,1-0.4c0.2-0.3,0.4-0.6,0.4-0.9c0-0.4-0.2-0.7-0.4-0.9
		l-2.9-2.7c-0.2-0.2-0.6-0.4-0.9-0.4c-0.4,0-0.7,0.1-1,0.4c-0.2,0.3-0.4,0.6-0.4,0.9c0,0.4,0.2,0.7,0.4,0.9L35.2,32.7z"/>
	<path class="st0" d="M32.5,62.6l4.9,1.9c0.2,0.1,0.3,0.1,0.5,0.1c0.6,0,1-0.3,1.2-0.8c0.1-0.3,0.1-0.7,0-1s-0.4-0.6-0.7-0.7
		l-4.9-1.9c-0.2-0.1-0.3-0.1-0.5-0.1c-0.5,0-1,0.3-1.2,0.8c-0.1,0.3-0.1,0.7,0,1C31.9,62.2,32.1,62.5,32.5,62.6z"/>
	<path class="st0" d="M66.7,35.8c0.2,0.5,0.7,0.8,1.2,0.8c0.2,0,0.4,0,0.5-0.1c0.3-0.1,0.6-0.4,0.7-0.7s0.1-0.7,0-1L66.6,29
		c-0.2-0.5-0.7-0.8-1.2-0.8c-0.2,0-0.4,0-0.5,0.1c-0.3,0.1-0.6,0.4-0.7,0.7c-0.1,0.3-0.1,0.7,0,1L66.7,35.8z"/>
	<path class="st0" d="M60.9,23.6c0.2,0.5,0.7,0.8,1.2,0.8c0.2,0,0.4,0,0.5-0.1c0.3-0.1,0.6-0.4,0.7-0.7c0.1-0.3,0.1-0.7,0-1
		l-2.5-5.8c-0.2-0.5-0.7-0.8-1.2-0.8c-0.2,0-0.4,0-0.5,0.1c-0.3,0.1-0.6,0.4-0.7,0.7c-0.1,0.3-0.1,0.7,0,1L60.9,23.6z"/>
	<path class="st0" d="M138.4,33.1c0.3,0,0.7-0.1,0.9-0.4l2.9-2.7c0.3-0.2,0.4-0.6,0.4-0.9c0-0.4-0.1-0.7-0.4-0.9
		c-0.3-0.3-0.6-0.4-1-0.4c-0.3,0-0.7,0.1-0.9,0.4l-2.9,2.7c-0.3,0.2-0.4,0.6-0.4,0.9c0,0.4,0.1,0.7,0.4,0.9
		C137.7,32.9,138,33.1,138.4,33.1z"/>
	<path class="st0" d="M136.6,64.6c0.2,0,0.3,0,0.5-0.1l4.9-1.9c0.3-0.1,0.6-0.4,0.7-0.7c0.1-0.3,0.1-0.7,0-1
		c-0.2-0.5-0.7-0.8-1.2-0.8c-0.2,0-0.3,0-0.5,0.1l-4.9,1.9c-0.3,0.1-0.6,0.4-0.7,0.7c-0.1,0.3-0.1,0.7,0,1
		C135.6,64.3,136.1,64.6,136.6,64.6z"/>
	<path class="st0" d="M106.1,36.5c0.2,0.1,0.3,0.1,0.5,0.1c0.5,0,1-0.3,1.2-0.8l2.5-5.8c0.1-0.3,0.1-0.7,0-1s-0.4-0.6-0.7-0.7
		c-0.2-0.1-0.3-0.1-0.5-0.1c-0.5,0-1,0.3-1.2,0.8l-2.5,5.8c-0.1,0.3-0.1,0.7,0,1S105.7,36.3,106.1,36.5z"/>
	<path class="st0" d="M111.9,24.3c0.2,0.1,0.3,0.1,0.5,0.1c0.5,0,1-0.3,1.2-0.8l2.5-5.8c0.1-0.3,0.1-0.7,0-1s-0.4-0.6-0.7-0.7
		c-0.2-0.1-0.3-0.1-0.5-0.1c-0.5,0-1,0.3-1.2,0.8l-2.5,5.8c-0.1,0.3-0.1,0.7,0,1C111.3,23.9,111.6,24.2,111.9,24.3z"/>
</g>
<g>
	<g>
		<g>
			<path class="st1" d="M192.4,15.6h6.7c8.5,0,9.8,4.9,9.8,8.7s-1.3,8.7-9.8,8.7h-3.2v8.6h-3.5V15.6z M195.9,30.2h3.2
				c5.5-0.1,6.3-2.6,6.3-5.9s-0.8-5.9-6.3-5.9h-3.2V30.2z"/>
			<path class="st1" d="M221.9,15.6h6.7c8.5,0,9.8,4.9,9.8,8.7c0,3-0.8,6.6-5.4,8.1l5.7,9.2H235l-5.4-8.6h-4.1v8.6H222v-26H221.9z
				 M225.4,30.2h3.2c5.5-0.1,6.3-2.6,6.3-5.9s-0.8-5.9-6.3-5.9h-3.2V30.2z"/>
			<path class="st1" d="M251.8,15.6h3.5v26h-3.5V15.6z"/>
			<path class="st1" d="M282.9,15.6h3.5l-7.7,26h-3.8l-7.8-26h3.5l6.1,21.2L282.9,15.6z"/>
			<path class="st1" d="M301.5,15.6h3.8l8.6,26h-3.5l-1.6-5h-10.9l-1.6,5h-3.5L301.5,15.6z M298.8,33.8h9.2
				c-1.6-4.9-2.9-8.6-4.6-13.6L298.8,33.8z"/>
			<path class="st1" d="M322.6,15.6h16v2.8h-6.3v23.2h-3.5V18.4h-6.2V15.6z"/>
			<path class="st1" d="M351.1,15.6h13.8v2.8h-10.3v9.4h8.6v2.8h-8.6v8.2h10.6v2.8h-14.1V15.6z"/>
		</g>
	</g>
	<g>
		<g>
			<path class="st1" d="M387,65.9V63h0.9c0.8,0,1.5-0.1,2.2-0.2c0.7-0.1,1.3-0.3,1.8-0.7c0.5-0.3,0.9-0.8,1.2-1.5
				c0.3-0.7,0.4-1.5,0.4-2.6V24.2c0-1-0.2-1.8-0.5-2.4s-0.7-1.1-1.2-1.4s-1.1-0.6-1.8-0.7c-0.7-0.1-1.4-0.2-2.2-0.2H387v-2.9h19.4
				c2.9,0,5.4,0.3,7.6,1c2.1,0.7,3.9,1.6,5.3,2.9c1.4,1.2,2.4,2.8,3.1,4.5c0.7,1.8,1,3.8,1,6c0,2-0.3,4-1,5.9
				c-0.6,1.9-1.7,3.6-3.2,5c-1.5,1.5-3.4,2.6-5.7,3.5c-2.4,0.9-5.2,1.3-8.7,1.3h-4.3v11.7c0,1,0.2,1.8,0.5,2.4
				c0.3,0.6,0.7,1.1,1.2,1.4c0.5,0.3,1.1,0.5,1.8,0.6c0.7,0.1,1.4,0.2,2.2,0.2h2.3v2.9H387z M400.6,43.4h3.7c2.1,0,3.9-0.2,5.4-0.7
				c1.5-0.4,2.7-1.1,3.6-2.1s1.6-2.2,2.1-3.8c0.4-1.5,0.7-3.4,0.7-5.6c0-1.9-0.2-3.6-0.6-5s-1-2.6-1.9-3.6c-0.9-0.9-2-1.6-3.3-2.1
				c-1.4-0.5-3-0.7-5-0.7h-4.7L400.6,43.4L400.6,43.4z"/>
			<path class="st1" d="M442.3,62.5h13.3c1.1,0,2-0.2,2.8-0.5s1.4-0.7,1.9-1.2s0.9-1.1,1.2-1.8c0.3-0.7,0.5-1.4,0.6-2.2l0.5-3h3.6
				l-0.5,12.1h-37V63h0.9c0.8,0,1.5-0.1,2.2-0.2c0.7-0.1,1.3-0.3,1.8-0.6s0.9-0.8,1.2-1.4c0.3-0.6,0.5-1.4,0.5-2.4V24.5
				c0-1.1-0.1-1.9-0.4-2.6s-0.7-1.2-1.2-1.5s-1.1-0.6-1.8-0.7c-0.7-0.1-1.4-0.2-2.2-0.2h-0.9v-2.9h34.8l0.3,12.1h-3.6l-0.3-3
				c-0.1-0.8-0.3-1.5-0.5-2.2c-0.3-0.7-0.6-1.3-1.1-1.8s-1.1-0.9-1.8-1.2c-0.7-0.3-1.6-0.5-2.6-0.5h-11.6v18.4h16.7v3.4h-16.7
				L442.3,62.5L442.3,62.5z"/>
			<path class="st1" d="M507.4,57.5c1.2,1.8,2.3,3.2,3.4,4.1c1.1,0.9,2.4,1.4,3.8,1.4h0.2v2.9h-1c-2.2,0-3.9-0.1-5.3-0.2
				c-1.4-0.2-2.6-0.5-3.5-0.9c-1-0.4-1.8-1.1-2.5-1.9c-0.7-0.8-1.4-1.9-2.2-3.2L491,44.2h-5.7v14.2c0,1,0.2,1.8,0.5,2.4
				c0.3,0.6,0.7,1.1,1.2,1.4c0.5,0.3,1.1,0.5,1.8,0.6c0.7,0.1,1.4,0.2,2.2,0.2h0.9v2.9h-20.1V63h0.9c0.8,0,1.5-0.1,2.2-0.2
				c0.7-0.1,1.3-0.3,1.8-0.6s0.9-0.8,1.2-1.4c0.3-0.6,0.5-1.4,0.5-2.4V24.2c0-1-0.2-1.8-0.5-2.4s-0.7-1.1-1.2-1.4s-1.1-0.6-1.8-0.7
				c-0.7-0.1-1.4-0.2-2.2-0.2h-0.9v-2.9h18.6c6,0,10.4,1.1,13.4,3.3c2.9,2.2,4.4,5.5,4.4,10c0,1.8-0.3,3.5-0.9,4.8
				c-0.6,1.4-1.4,2.6-2.3,3.6c-1,1-2.1,1.9-3.3,2.5c-1.2,0.7-2.4,1.2-3.6,1.6L507.4,57.5z M485.3,40.9h4.9c2,0,3.7-0.2,5.1-0.7
				c1.3-0.4,2.4-1.1,3.2-2c0.8-0.9,1.4-2,1.7-3.4c0.3-1.3,0.5-2.9,0.5-4.7c0-1.8-0.2-3.4-0.6-4.7c-0.4-1.3-1-2.3-1.9-3.2
				c-0.9-0.8-2-1.4-3.3-1.8c-1.4-0.4-3-0.6-5-0.6h-4.7L485.3,40.9L485.3,40.9z"/>
			<path class="st1" d="M555.7,24.5v27.3c0,2.3-0.4,4.4-1.1,6.2c-0.7,1.8-1.8,3.4-3.2,4.7s-3.2,2.2-5.3,2.9s-4.5,1-7.3,1
				c-2.7,0-5.2-0.3-7.3-0.9c-2.2-0.6-4-1.5-5.5-2.7s-2.6-2.9-3.4-4.8c-0.8-2-1.2-4.4-1.2-7.2V24.2c0-1-0.2-1.8-0.5-2.4
				s-0.7-1.1-1.2-1.4s-1.1-0.6-1.8-0.7s-1.4-0.2-2.2-0.2h-0.9v-2.9h20.1v2.9H534c-0.8,0-1.5,0.1-2.2,0.2s-1.3,0.3-1.8,0.7
				c-0.5,0.3-0.9,0.8-1.2,1.5s-0.5,1.5-0.5,2.6v26.9c0,2,0.3,3.7,0.9,5.1c0.6,1.4,1.4,2.5,2.4,3.4s2.2,1.5,3.6,1.9s3,0.6,4.6,0.6
				c2,0,3.7-0.3,5.2-0.8s2.7-1.3,3.6-2.2c1-1,1.7-2.1,2.1-3.4c0.5-1.3,0.7-2.8,0.7-4.3V28.3"/>
		</g>
		<path class="st1" d="M548.9,24.9c0.4-0.5,0.9-1.1,1.3-1.8c0.5-0.7,0.9-1.4,1.3-2.2c0.4-0.7,0.8-1.5,1.2-2.2s0.7-1.4,1-2.1h6v0.6
			c-0.3,0.5-0.9,1.1-1.5,1.9c-0.7,0.7-1.4,1.5-2.3,2.3c-0.8,0.8-1.7,1.6-2.5,2.4c-0.9,0.8-1.7,1.4-2.4,1.9h-2.1V24.9z"/>
	</g>
	<g>
		<g>
			<path class="st1" d="M196.7,53.3h-3.8V52h9.1v1.3h-3.8v11.1h-1.6V53.3H196.7z"/>
			<path class="st1" d="M213.8,52h3.9c2.5,0,4.4,0.9,4.4,3.5c0,2.5-1.8,3.7-4.4,3.7h-2.3v5.3h-1.6L213.8,52L213.8,52z M217.5,57.9
				c1.9,0,3-0.8,3-2.4c0-1.6-1.1-2.2-3-2.2h-2.1v4.6C215.4,57.9,217.5,57.9,217.5,57.9z M217.4,58.8l1.2-0.8l3.8,6.5h-1.8
				L217.4,58.8z"/>
			<path class="st1" d="M236.6,52h1.8l4.2,12.5h-1.7l-2.2-7c-0.4-1.4-0.8-2.8-1.2-4.2h-0.1c-0.4,1.4-0.8,2.8-1.2,4.2l-2.2,7h-1.6
				L236.6,52z M234.6,59.4h5.7v1.3h-5.7V59.4z"/>
			<path class="st1" d="M253.8,52h1.6l4.5,7.8l1.3,2.6h0.1c-0.1-1.3-0.2-2.7-0.2-4V52h1.5v12.5H261l-4.5-7.8l-1.3-2.6h-0.1
				c0.1,1.3,0.2,2.6,0.2,3.9v6.5h-1.5L253.8,52L253.8,52z"/>
			<path class="st1" d="M274.7,62.8l0.9-1.1c0.9,0.9,2.1,1.5,3.4,1.5c1.6,0,2.6-0.8,2.6-2c0-1.3-0.9-1.7-2.1-2.2l-1.8-0.8
				c-1.2-0.5-2.5-1.4-2.5-3.2c0-1.9,1.7-3.3,3.9-3.3c1.5,0,2.8,0.6,3.7,1.5l-0.8,1c-0.8-0.7-1.7-1.2-2.8-1.2c-1.4,0-2.3,0.7-2.3,1.8
				c0,1.2,1.1,1.7,2.1,2.1l1.8,0.8c1.4,0.6,2.6,1.5,2.6,3.3c0,2-1.6,3.5-4.2,3.5C277.3,64.7,275.8,64,274.7,62.8z"/>
			<path class="st1" d="M295.2,52h3.6c2.8,0,4.7,0.9,4.7,3.7c0,2.6-1.9,3.9-4.6,3.9h-2v4.9h-1.6V52H295.2z M298.7,58.2
				c2.2,0,3.2-0.8,3.2-2.6s-1.1-2.4-3.3-2.4h-1.8v4.9L298.7,58.2L298.7,58.2z"/>
			<path class="st1" d="M314.8,58.2c0-4,2.2-6.4,5.3-6.4s5.3,2.4,5.3,6.4s-2.2,6.5-5.3,6.5S314.8,62.2,314.8,58.2z M323.8,58.2
				c0-3.1-1.5-5-3.7-5s-3.7,1.9-3.7,5s1.5,5.1,3.7,5.1S323.8,61.3,323.8,58.2z"/>
			<path class="st1" d="M337.6,52h3.9c2.5,0,4.4,0.9,4.4,3.5c0,2.5-1.8,3.7-4.4,3.7h-2.3v5.3h-1.6V52z M341.3,57.9
				c1.9,0,3-0.8,3-2.4c0-1.6-1.1-2.2-3-2.2h-2.1v4.6C339.2,57.9,341.3,57.9,341.3,57.9z M341.2,58.8l1.2-0.8l3.8,6.5h-1.8
				L341.2,58.8z"/>
			<path class="st1" d="M360.2,53.3h-3.8V52h9.1v1.3h-3.8v11.1h-1.6L360.2,53.3L360.2,53.3z"/>
		</g>
	</g>
</g>
<g>
	<path d="M-468.4-189.5c0-0.7,0-1.3,0-2c2.7-2.3,5.1-5,8.1-6.7c4.3-2.4,9.1-4.1,13.7-5.9c27.5-10.8,55.5-19.6,85.2-21.9
		c14.4-1.1,28.6-0.9,42.3,4.5c5.2,2.1,8.7,5.5,9.7,11.1c2.3,13.6,4.9,27.2,6.8,40.8c0.5,3.6,1.7,4.4,5,4.2c3.8-0.3,7.7-0.3,11.5,0
		c3.4,0.3,4.4-1,4.9-4.4c2-13.6,4.4-27.2,6.8-40.8c0.9-5.4,4.1-9.5,9.3-10.7c9.5-2.2,19.1-4.7,28.8-5c25.8-0.9,50.6,5.2,74.8,13.4
		c13.7,4.6,27,10.2,40.5,15.6c4.6,1.8,6.2,6,4.5,10.2c-1.6,3.9-5.9,5.4-10.5,3.7c-1.4-0.5-2.7-1.2-4.1-1.8
		c-27.3-11.6-55.2-21.3-84.9-24.8c-13.3-1.6-26.5-2.2-39.7,1.4c-2.9,0.8-4.5,2.1-4.9,5.3c-0.5,4.4-1.8,8.8-2.5,13.2
		c-1.3,8.3-2.4,16.7-3.6,25.2c1.5,0.2,2.3,0.3,3.1,0.4c14.5,0.7,29,1,43.4,2.2c6.1,0.5,13.2,1.6,17.8,5.1c7,5.3,12.8,12.5,17.9,19.8
		c5.3,7.7,9.1,16.4,13.7,25c4.2-7.3,10.2-8.4,17.3-5.7c1.1,0.4,2.2,0.7,3.4,0.9c6.3,1,9.3,4.5,9.9,11c0.6,6.1-0.4,8.2-6.7,8.9
		c-3.5,0.4-7,0.3-10.5,0.5c-1.7,0.1-3.3,0.3-5,0.4c-0.2,0.5-0.4,1-0.6,1.5c3.7,3.4,7.2,6.8,11,10.1c13.6,12.1,19.4,27.6,19.5,45.3
		c0.3,32.7,0.2,65.3,0.6,98c0.1,9.8-3,16.8-12.6,20.1c-12,0-24,0-36,0c-13.7-4.3-12.9-15.9-12.5-25.9c-33.6,1-66.3,2.7-99.1,2.7
		c-32.9,0-65.8-1.8-99.1-2.8c0.5,10.4,1.1,21.6-12.4,26c-12,0-24,0-36,0c-7.5-2.8-12.5-7.5-12.5-16.1c0.2-35,0.1-70,0.7-104.9
		c0.3-15.6,5.7-29.6,17.5-40.6c4.3-4,8.3-8.4,12.5-12.6c-0.2-0.5-0.3-1-0.5-1.6c-4.7,0-9.5,0.5-14.2-0.2c-2.9-0.5-7.9-2.8-7.9-4.2
		c0-4.4,0.7-10.7,3.6-12.6c4.8-3.2,11.5-4.6,17.4-4.8c3.4-0.1,6.9,3.5,10.5,5.6c0.8-1.7,1.8-4.4,3.3-6.8c6.2-10,12-20.3,18.9-29.8
		c4.2-5.8,10.1-10.3,17.7-11.2c8.3-1,16.6-1.6,24.9-2.1c9.9-0.6,19.9-0.9,30.5-1.4c-1.9-12.2-4.1-24-5.5-35.8
		c-0.7-5.9-3.9-7.9-9.3-8.9c-14.7-2.7-29.2-1.7-43.7,0.6c-27.6,4.3-53.7,13.7-79.3,24.7C-462.3-181.1-464.7-182-468.4-189.5z
		 M-426.6-70.3c0.4,0.6,0.9,1.1,1.3,1.7c16.6,4.6,35.3,3,49.1,16.3c-8.6,6.4-17.3,10.5-28.1,8.4c-5.7-1.1-11.6-0.9-17.4-1.7
		c-3.1-0.4-6.8-0.6-8.9-2.4c-1.9-1.6-1.9-5.3-2.7-8.1c-0.3,0.9-0.7,2.1-1,3.4c-5.1,26.7-0.7,53.1,3,79.4c0.3,2.2,4.1,5.1,6.6,5.5
		c11.5,1.8,23.1,3,34.7,4c2.2,0.2,5.1-1.3,6.6-2.9c5.9-6.1,11.4-12.6,16.9-19.1c7.2-8.4,16.1-12.2,27.2-12.1c31.7,0.2,63.3,0.2,95,0
		c11.2-0.1,20,3.8,27.2,12.2c5.4,6.3,11.1,12.4,16.4,18.8c2.3,2.8,4.7,3.6,8.2,3.1c8.1-1.1,16.2-1.9,24.3-2.8
		c15.9-1.7,16.2-1.5,17.4-16.3c1.4-18.1,2.7-36.2,3.4-54.3c0.2-6.4-1.6-13-2.5-19.4c-0.8,10.1-2.7,9.7-11.9,10.9
		c-6.6,0.8-13.3,0.9-19.9,1.9c-10.1,1.6-17.9-3-26.8-9.3c6-3.1,10.8-6.3,16.1-8.3c5.4-2,11.2-2.9,16.9-4.1c5.7-1.2,11.4-2,18.2-3.2
		c-3.9-4-7.3-7.1-10.3-10.6c-3.6-4.1-7.6-8-10.3-12.7c-2.1-3.7-4-5.1-8.3-5.1c-70.3,0.1-140.6,0.1-210.9,0.1c-1.2,0-2.4-0.3-3.5,0.1
		c-1.3,0.4-2.6,1.2-3.4,2.2c-4.5,5.5-8.6,11.3-13.3,16.6C-420.1-75-423.5-72.8-426.6-70.3z M-188.1-112.5c-2.1-4.2-3.7-7.8-5.7-11.2
		c-2.5-4.1-5.3-8-7.9-12.1c-5.2-8.2-12.8-11.2-22.3-11.8c-45.2-3-90.5-3.2-135.7,0.2c-5,0.4-10.9,0.9-14.7,3.7
		c-10.3,7.7-15.7,19.4-21.4,31.3C-326.3-112.5-257.7-112.5-188.1-112.5z M-216.8,37.8c-5.7-6.3-10.1-12-15.4-16.7
		c-2.5-2.2-6.6-3.5-9.9-3.5c-33.1-0.3-66.2-0.2-99.4,0c-3.1,0-7,0.9-9.2,2.8c-5.6,5-10.4,10.9-16.4,17.4
		C-316.6,41.1-267.5,41-216.8,37.8z M-406.3,62.9c0-3.4-0.1-6.5,0-9.6c0.1-2.6-1-3.4-3.4-3.7c-8.9-1.2-17.8-2.5-26.6-3.8
		c0,5.2,0,11.1,0,17.2C-426.2,62.9-416.5,62.9-406.3,62.9z M-177.1,62.8c10.1,0,19.8,0,29.6,0c0-6.2,0-12.1,0-17.4
		c-6.6,1.1-13.1,2.3-19.6,3.2C-178.7,50.4-178.7,50.3-177.1,62.8z"/>
	<path d="M-367.2-43.8c22.3-11,128.7-11,150.6,0.1c-7.8,0.4-14.6,0.8-21.4,1.2c-10.5,0.7-20.9,1.6-31.4,2.1
		c-9.4,0.5-16.1,5.6-22.7,12.2c-7.7-9.9-18.2-12.4-29.8-12.9C-336.7-41.8-351.4-42.9-367.2-43.8z"/>
</g>
</svg>
