<?xml version="1.0" encoding="utf-8"?>
<!-- Generator: Adobe Illustrator 22.1.0, SVG Export Plug-In . SVG Version: 6.00 Build 0)  -->
<svg version="1.1" id="Capa_1" xmlns="http://www.w3.org/2000/svg" xmlns:xlink="http://www.w3.org/1999/xlink" x="0px" y="0px"
	 viewBox="0 0 100 100" style="enable-background:new 0 0 100 100;" xml:space="preserve">
<style type="text/css">
	.st0{fill:#AAAAAA;}
</style>
<g>
	<path class="st0" d="M78.8,77c-19.2,0-38.4,0-57.7,0c-0.1,0-0.1-0.1-0.2-0.1c-4.2-1.1-6-3.3-6-7.5c0-10.8,0-21.5,0-32.3
		c0-0.4,0-0.8,0-1.4c0.7,0.4,1.1,0.7,1.6,0.9c10.8,6.5,21.6,13,32.3,19.5c0.8,0.5,1.4,0.5,2.2,0c10.8-6.5,21.7-13.1,32.6-19.6
		c0.4-0.2,0.8-0.4,1.3-0.8c0,2.6,0,5,0,7.3c0,8.9,0,17.8,0,26.6c0,3.9-1.9,6.2-5.9,7.1C79,76.8,78.9,76.9,78.8,77z"/>
	<path class="st0" d="M21.2,23c19.2,0,38.4,0,57.7,0c0.3,0.1,0.5,0.2,0.8,0.3c2.2,0.6,3.8,1.9,4.8,3.8c0.4,0.8,0.3,1.2-0.5,1.7
		C72.9,35.3,62,41.9,51.1,48.4c-0.8,0.5-1.3,0.5-2.1,0c-10.8-6.5-21.6-13-32.4-19.6C15,28,15,28,15.9,26.5
		C17.1,24.5,19,23.5,21.2,23z"/>
</g>
</svg>
