<?xml version="1.0" encoding="utf-8"?>
<!-- Generator: Adobe Illustrator 22.1.0, SVG Export Plug-In . SVG Version: 6.00 Build 0)  -->
<svg version="1.1" id="Capa_1" fill="#f5841f" xmlns="http://www.w3.org/2000/svg" xmlns:xlink="http://www.w3.org/1999/xlink" x="0px" y="0px"
	 viewBox="0 0 462.7 352" style="enable-background:new 0 0 462.7 352;" xml:space="preserve">
<path d="M431,258.3c-2.8-3.2-6-5.5-10.1-7.2l-0.5-0.2c-3-1-6.2-2-9.6-3.2c-0.1-4.6-0.3-8.9-0.7-13.2c-1.3-13.1-3.9-28.2-7.6-43.8
	c-1-4-2.1-8.2-3.3-12.5c-1.5-5.2-2.8-9.2-4.2-13c-0.8-2.1-1.7-4.4-2.9-7c-0.2-0.4-0.4-0.8-0.6-1.2l-0.4-0.8c-0.4-0.7-1.2-1.9-2-2.7
	l-0.1-0.1c-0.3-0.3-0.6-0.6-0.8-0.8l-0.9-0.8c-0.5-0.5-1-0.8-1.4-1.1l-0.5-0.3c-2.4-1.6-4.8-2.9-7-4c-2.5-1.2-5-2.3-6.9-3
	c-8.1-3.3-16-6-23.6-8.5l-4.7-1.6c-3.6-1.2-7-2.4-10.1-3.6l-0.1-0.1c-0.4-0.2-0.8-0.3-1.2-0.5c0,0,0,0-0.1,0l0,0l-0.5-0.2
	c-0.1-0.2-0.3-0.4-0.5-0.5c0,0-0.2-0.2-0.5-0.3l-0.1-0.1l-0.1,0c-0.1,0-0.2-0.1-0.3-0.1l-0.7-0.7c-0.2-0.2-0.4-0.4-0.6-0.6l-0.3-0.3
	c-0.3-0.3-0.5-0.6-0.8-0.9c-0.4-0.4-0.7-0.8-1.2-1.3c-2.3-2.6-4.5-5.3-6.7-7.9l-2.4-2.9c-2-2.4-3.9-4.7-6-7l-0.7-0.8
	c-0.1-0.1-0.3-0.3-0.5-0.5l-0.3-0.3c-0.4-0.4-0.9-0.8-1.4-1.2l-0.4-0.3c-0.4-0.3-0.8-0.6-1.3-0.9c-0.3-0.2-0.6-0.3-0.8-0.5l-0.7-0.4
	c-1.8-0.9-3.7-1.6-5.7-2.3c-1-0.3-1.8-0.6-2.6-0.9c-1.9-0.7-3.4-1.2-5.8-1.7c-3.1-0.6-6.7-1-9.6-1.4c-1.1-0.1-2.1-0.3-3-0.4
	c-0.1-0.3-0.2-0.5-0.3-0.8c-0.4-1.1-0.8-2.3-1.2-3.4c-2.1-5.8-4.2-11-6.3-15.9c-2.9-6.5-5.4-11.4-8.2-15.9c-1.9-3.1-3.7-5.6-5.6-7.8
	l-0.1-0.2c-0.5-0.6-1-1.2-1.6-1.8l-0.9-0.9l-1-0.9c-0.5-0.5-1.1-1-1.7-1.4l-0.6-0.5c-0.3-0.2-0.6-0.4-0.9-0.6l-0.2-0.2
	c-0.5-0.3-0.9-0.6-1.4-0.8c-2-1.1-4.2-1.9-6.5-2.3l-0.9-0.1c-0.3,0-0.5,0-0.8-0.1l-0.3,0c-0.5,0-1.1,0-1.4,0c-0.5,0-1.1,0-1.7,0.1
	c-0.5,0-1.1,0.1-1.7,0.2c-4.7,0.8-8.2,2.9-10.8,4.7c-2.4,1.7-4.7,3.6-7.3,6.2c-2,1.9-3.9,4-6,6.6c-3.3,4-6.5,8.4-10,13.8
	c-5.2,8-10.3,16.7-16.4,28.1c-5.2,9.9-10,19.6-14,27.7c-1.4,3-2.9,5.9-4.3,8.8l-2.2,4.6c-0.5,1.1-0.7,2.2-0.8,3.1
	c-0.3,0.5-0.5,1.1-0.7,1.6c-0.1-0.2-0.3-0.3-0.4-0.5c-0.3-0.3-0.6-0.7-0.8-1c-1.1-1.5-2.2-3-3.3-4.4c-1.2-1.6-2.3-3.1-3.5-4.7
	c-2.1-2.9-4.6-6.1-7.5-9.3c-0.9-0.9-1.7-1.7-2.6-2.5c-0.3-0.2-0.5-0.4-0.8-0.6c-0.3-0.2-0.5-0.4-1.1-0.8c-1-0.6-2-1.1-3-1.4
	c-1.2-0.4-2.4-0.5-3.6-0.4c-0.5,0-1.1,0.1-1.4,0.1c-0.6,0.1-1.1,0.2-1.4,0.3l-0.4,0.1c-0.6,0.2-1.1,0.3-1.6,0.5l-1.8,0.8l-0.1,0.1
	c-2.1,1.1-4,2.4-5.8,3.9l-0.4,0.3c-0.3,0.2-0.5,0.5-0.8,0.7l-1,1c-0.6,0.6-1.1,1.1-1.7,1.7l-0.5,0.5c-2.3,2.5-4.6,5.2-7.1,8.7
	c-3.6,5-7,10.3-11,17.4c-5.6,9.9-10.9,20.3-16.6,32.8l-1.7,3.8c-0.4,0.9-0.7,1.8-1.1,2.7c-0.1,0.4-0.3,0.8-0.4,1.2
	c-7.4,3-13.9,5.9-19.7,8.8c-5.9,2.9-11.7,6.2-17.5,9.7l-1.2,0.7c-5.1,3.1-12.2,7.4-14.8,16.1l-0.2,1.3c-0.3,1.8-0.6,3.9-0.1,6
	c0,0.3,0.1,0.5,0.1,0.8c0.1,0.7,0.2,1.6,0.5,2.6l0.2,0.5c0.6,1.2,1.2,2.6,2.2,3.7c3.3,3.7,7,5.2,10.6,6.4c4.8,1.6,9.7,2.1,14,2.6
	c1.8,0.2,3.5,0.4,5.1,0.6l6.4,0.8c9.5,1.2,18.7,2.3,27.7,3.4c13.8,2,26.8,4.6,39.4,7.1c7.4,1.4,14.4,2.8,21.3,4l49.7,12
	c6.5,1.4,13.1,3.2,20.1,5.3l17,4.9c10.4,2.9,18.3,5.1,23.7,6.4c7.5,1.8,10.7,2.6,11.6-0.3c0.2-0.7,0.2-1.5-0.1-2.1
	c-0.7-1.4-1.2-2.5-32.4-13l-16.8-5.6c-7-2.4-13.7-4.4-20.4-6l-20.9-5.4c-9.1-2.4-18.7-4.9-28.8-7.5l-0.2,0
	c-6.3-1.2-12.6-2.5-19.4-3.9c-13.3-2.7-27.1-5.6-42-7.9l-34.5-4.5c-1.8-0.3-3.6-0.5-5.3-0.7c-4-0.5-7.8-0.9-11.2-2.1
	c-2.5-0.8-4.3-2-5-2.7l0-0.1c0,0,0,0,0,0c0,0,0-0.1,0-0.1c0-0.3-0.1-0.7-0.1-0.9l-0.1-0.2c-0.1-0.2,0-0.6,0.1-1.1
	c0-0.3,0.1-0.6,0.1-1c0-0.1,0.1-0.2,0.1-0.3l0.4,0c2.8,0.3,5.6,0.5,8.5,0.8c28,2.8,56.2,7,83.8,12.4c34,6.6,67.8,15.3,100.4,25.7
	l13.1,4.2c1.1,0.3,2.1,0.7,3.2,1l0.1,0c1.1,0.3,2.2,0.6,3.3,1c1.5,0.5,3,0.9,4.5,1.2c0.7,0.2,1.5,0.4,2.3,0.6
	c8.4,2.2,17.4,4,26.6,5.4c17.4,2.6,34.7,3.7,51.2,3.1c17.3-0.6,32.9-3,46.3-7.2c7.5-2.3,14.2-5.2,20-8.5c5.9-3.4,11.1-7.3,15.4-11.7
	c2.9,1.9,4.7,4.4,4.5,6.6c-0.3,3.7-3.9,7-7.8,10c-9.3,6.9-20.1,10.7-28.3,13.2c-16.3,4.6-33.3,6.8-52,6.9
	c-16.6-0.1-29.3-1.2-36.9-1.8c-3.1-0.3-5.5-0.5-7.1-0.5c-1.6-0.1-4.8-0.2-5.2,2.6c-0.5,3.1,2.7,3.9,14,6.2c6.9,1.3,18.6,3,35.1,3.7
	c2.3,0.1,4.7,0.1,7,0.1c16.8,0,32.6-2,48.3-6.1c9.8-2.8,21.3-6.7,32.2-14.6c3.2-2.3,5.6-4.5,7.7-6.9c1.4-1.4,2.4-3.3,3.4-5.2
	l0.5-1.5c0.5-1.5,0.9-3.1,1.2-4.8l0-0.4C435.6,266.1,434,261.4,431,258.3z M337.1,280.6c-15.8,0.5-32.3-0.5-49.2-3.1
	c-8.9-1.4-17.5-3.1-25.5-5.2c-0.7-0.2-1.4-0.4-2.2-0.6c-1.4-0.4-2.8-0.7-4.2-1.2l-19.6-6.2c-33.3-10.6-67.5-19.3-101.7-25.9
	c-28.3-5.4-56.6-9.4-83.9-11.8c4.2-2.5,8.7-5,13.8-7.6c8.6,0.7,17.4,1.5,26,2.6c20.2,2.6,41,6.3,61.7,11.1
	c23.5,5.4,48.4,12.3,74.1,20.6l5.6,1.9c4.6,1.6,9.2,3.1,13.7,4.6c0.6,0.2,1.2,0.4,1.9,0.6c1,0.3,1.9,0.7,2.9,1l1.3,0.4
	c1.2,0.4,2.4,0.7,3.5,1.1c3.2,0.9,6.4,1.8,9.7,2.6c11.9,3,24.5,5.3,37.4,6.8c24.1,2.8,46.4,2.2,64.6-1.8c8.9-1.8,17-4.6,24.1-8.2
	c3.2-1.6,6.3-3.5,9.3-5.6c2.5,0.9,5.3,1.9,8.1,2.8c-3,2.6-6.3,4.9-10,6.9l0,0c-5.2,2.9-11.2,5.4-18,7.4
	C368.1,277.9,353.4,280,337.1,280.6z M142,180.1c0.4-0.7,0.7-1.3,1.1-1.9l0.2-0.2l0.1-0.3c0.2-0.4,0.3-0.9,0.5-1.3
	c0.8-1.9,1.6-4.1,1.8-6.6l0-0.5c0.1-1.2,0.2-2.3,0.3-3.5l0-0.3l0-0.3c-0.1-0.8-0.2-1.6-0.3-2.4l-0.2-1.6c-0.2-2.3-1-4.2-1.7-5.9
	c-0.3-0.8-0.7-1.6-0.9-2.3l-0.1-0.3c-0.2-0.5-0.5-1.1-0.7-1.6c-0.7-1.5-1.4-3-1.9-4.5c-1.1-3-1.8-5.7-2.1-8c1.6,1.9,3.1,4,4.6,6.1
	l0,0c1,1.4,2,2.8,3,4.2c1.2,1.6,2.4,3.3,3.6,5c0.6,0.8,1.2,1.6,1.8,2.4l1,1.3l1.1,1.3c1,1.1,1.8,2,2.7,2.8
	c-3.2,7.9-5.5,14.1-6.9,17.8c-2.6,0.4-5,0.7-7.3,1.1C141.8,180.5,141.9,180.3,142,180.1z M242.1,126.7l1-5.7l0-0.1
	c0.4-3.3,0.8-6.5,1.1-9.6l0-0.1c0.1-1.1,0.1-2.3,0.2-3.4c0.1-1.9,0.2-4,0.3-6l0-3c0-2,0-4,0-5.9l0-0.1c-0.1-2.9-0.3-5.7-0.4-8.4
	c-0.1-2.3-0.2-4.7-0.2-7.5c0-4.7,0.2-9.3,0.6-13.6c0.1-1.1,0.2-2.1,0.3-3c0,0,0,0,0,0l0.2,0.2c1.4,1.7,2.8,3.6,4.3,6
	c2.4,3.9,4.7,8.3,7.2,14.1c2,4.7,4,9.7,6,15c1.7,4.7,3.4,9.7,5.2,15.2c0.9,2.6,1.7,5.3,2.4,7.5l0.6,2c0.1,0.2,0.2,0.5,0.2,0.7
	c0.2,0.5,0.4,1.1,0.6,1.6l0.9,2l1,2.1c1.2,2.4,2.5,4.9,4.1,7.5c1.5,2.4,3,4.7,4.5,6.9c3.6,5.2,6.7,9.2,9.9,12.9l0.4,0.5
	c0.4,0.4,0.7,0.8,1.1,1.1l2.1,2.2c0.5,0.5,1,1.1,1.5,1.7c1.5,1.7,3,3.4,4.6,5.4c2.7,3.3,5.4,6.9,8.3,11.1c2.7,3.9,5.1,8,7,11.4
	c2,3.7,4,7.6,5.6,11.7c1.9,4.6,3.5,9.3,4.7,14.4l-1.5-0.7c-3.7-1.7-7.5-3.3-11.3-5c-29.9-15.1-62.6-25-94.8-29
	c2.4-3.4,4.9-7.4,7.4-11.8c0.3-0.6,0.7-1.2,1-1.9c0.4-0.7,0.7-1.4,1.1-2.1l0.3-0.6c0.3-0.5,0.5-1,0.8-1.5l0.1-0.1
	c0.3-0.6,0.6-1.3,0.9-2c0.4-0.8,0.7-1.5,1.1-2.3c0.3-0.6,0.6-1.3,0.9-1.9l0.5-1.1l3.1-7.9l1.5-4.7c0.9-2.6,1.5-5.2,2.1-7.8
	c0.2-0.7,0.3-1.4,0.5-2C241.6,129.5,241.9,128.1,242.1,126.7z M355.6,202.7c0.8-0.1,1.5-0.5,2-1.2c1.5-2,1.3-6.1-2.6-31.3
	c-1.2-7.7-2.2-13.8-3-18.5c3.8,1.3,7.8,2.8,11.9,4.4c0.8,6.6,2.6,17.2,4.3,27.4c1.6,9.2,3.1,17.9,4.4,24.2
	c1.7,8.2,2.7,12.4,6.1,11.9c0.8-0.1,1.4-0.6,1.9-1.2c1.5-2.1,1.1-6.5-4-36.4c-1.5-8.5-2.8-16.1-4-22.1c1.9,0.9,3.3,1.8,4.4,2.5
	c0.1,0.1,0.3,0.2,0.4,0.3c0.2,0.1,0.3,0.2,0.4,0.3l0.5,0.4l0,0c0.1,0.1,0.1,0.1,0.2,0.2l0.6,1c0.7,1.5,1.5,3.3,2.3,5.5
	c2.9,8.1,5.1,16.3,7.1,23.9c3.6,14.3,6.5,28.7,8.4,41.9c0.3,2.2,0.6,4.5,0.9,6.9c-18.6-7-37.9-15.3-54.7-22.7c0,0,0,0,0,0
	c-1.2-8.7-3.7-17.7-7.3-26.6c-1.8-4.7-4.1-9.2-6.2-13.1c-2.1-3.8-4.7-8.3-7.7-12.6c-2.9-4.3-6-8.5-9-12.2c-1.8-2.2-3.4-4.1-4.9-5.9
	c-0.6-0.8-1.4-1.5-2.1-2.3l-2-2.2c-0.2-0.2-0.4-0.4-0.6-0.6c-0.2-0.2-0.3-0.4-0.4-0.5c-2.7-3.1-5.5-6.8-8.7-11.4
	c-2.1-3.1-5.2-7.8-7.5-12.5l-0.7-1.6l-0.6-1.5c-0.1-0.2-0.2-0.5-0.3-0.7c-0.1-0.3-0.2-0.5-0.2-0.7l-0.5-1.8
	c-0.6-1.9-1.1-3.7-1.7-5.6c1.7,0.3,3.6,0.7,5.2,1.1c2.6,0.7,4.6,1.4,7.3,2.4l0.4,0.1c0.9,0.3,1.6,0.7,2.5,1.2
	c0.2,0.1,0.4,0.2,0.7,0.4l0.5,0.4l0.2,0.1c0.1,0.1,0.2,0.2,0.4,0.4c0.1,0.1,0.1,0.2,0.2,0.2c0,0,0,0,0,0l0.7,0.8
	c1.7,1.9,3.4,4.1,5.2,6.3c0.6,0.7,1.1,1.4,1.7,2.2l0.1,0.1c2.4,3,4.9,6.1,7.6,9.3c0.5,0.6,1,1.2,1.6,1.8l1.1,1.2
	c0.2,0.3,0.5,0.5,0.8,0.9l2.3,2.2c0.1,0.1,0.3,0.2,0.5,0.4l1,0.7l1,0.6c0.3,0.2,0.6,0.3,0.9,0.5c0.6,0.3,1.2,0.6,1.7,0.8
	c0.6,0.3,1.2,0.5,1.7,0.7c3.9,1.5,7.6,2.8,11.5,4.2l1.2,0.4c0.9,0.3,1.8,0.6,2.7,0.9l0.1,0c0.5,5.3,1.7,13.2,3.2,22.8
	c1.2,7.8,2.4,15.3,3.5,20.7C351.2,199,352.2,203.1,355.6,202.7z M303.7,240.4c-12.5-1.5-24.7-3.8-36-6.6c-3.2-0.8-6.3-1.6-9.3-2.5
	c-1.2-0.3-2.3-0.7-3.5-1.1l-1.1-0.4c-1-0.3-2-0.6-2.9-1c-0.6-0.2-1.2-0.4-1.7-0.6c-6-2-12.1-4.1-18.2-6.2l-1.1-0.4
	c-26.4-8.5-51.6-15.5-75.1-20.8c-8.2-1.9-16.4-3.5-24.8-5.1c18.4-4.1,36.6-6.3,54.4-6.5h0c41.6-0.6,84.8,9.7,124.9,29.7l7.5,3.3
	c14.4,6.4,28.2,12.4,41.7,18.1C342.5,242.9,323.7,242.8,303.7,240.4z M245.5,238.6l0.1,0.1c0.5,0.2,1,0.3,1.5,0.5
	c1.1,0.4,2.2,0.7,3.3,1.1l1,0.3c1.3,0.4,2.6,0.8,3.8,1.2c3,0.9,6.2,1.7,9.7,2.6c11.9,3,24.5,5.3,37.4,6.8
	c24.1,2.8,46.4,2.2,64.6-1.8c2.7-0.6,5.2-1.3,7.6-2l0.2-0.1c5.4,2.2,10.2,4,14.6,5.7c-0.8,0.4-1.5,0.8-2.3,1.1
	c-6.5,3-13.9,5.2-22.1,6.8c-17.3,3.3-38.5,3.7-61.4,0.9c-12.5-1.5-24.6-3.8-36-6.6c-3.2-0.8-6.3-1.6-9.3-2.5c-1.1-0.3-2.2-0.6-3.2-1
	l-1.4-0.4c-0.9-0.3-1.8-0.6-2.7-0.9c-0.6-0.2-1.3-0.4-1.9-0.6l-19.3-6.6c-26.3-8.5-51.6-15.5-75.1-20.8
	c-21.5-4.9-43.2-8.6-62.9-10.6c-3-0.3-6.1-0.6-9.2-0.9c6.9-2.9,13.7-5.5,20.6-7.8c0.4-0.1,0.9-0.3,1.3-0.4c0.3-0.1,0.6-0.2,0.8-0.2
	c15.7,2.4,31.5,5.4,47,9c23.3,5.3,48.2,12.3,74.1,20.7C232.9,234.3,239.2,236.5,245.5,238.6z"/>
</svg>
