<?xml version="1.0" encoding="utf-8"?>
<!-- Generator: Adobe Illustrator 22.1.0, SVG Export Plug-In . SVG Version: 6.00 Build 0)  -->
<svg version="1.1" id="Capa_1" xmlns="http://www.w3.org/2000/svg" xmlns:xlink="http://www.w3.org/1999/xlink" x="0px" y="0px"
	 viewBox="0 0 100 100" style="enable-background:new 0 0 100 100;" xml:space="preserve">
<style type="text/css">
	.st0{fill:#AAAAAA;}
</style>
<g>
	<path class="st0" d="M87,48.9c-0.1,0.2-0.2,0.3-0.3,0.5c-0.7,1.7-2,2.5-3.6,2.3c-1.6-0.3-2.6-1.5-2.7-3.2
		c-0.1-3.9-0.7-7.7-2.4-11.3c-5.1-10.9-13.7-16.8-25.7-17.6c-0.4,0-0.8,0-1.3-0.1c-1.5-0.2-2.6-1.2-2.8-2.7
		c-0.2-1.4,0.5-2.7,1.8-3.4c0.3-0.2,0.7-0.3,1-0.5c0.6,0,1.1,0,1.7,0c0.5,0.1,0.9,0.2,1.4,0.2c14.1,1,26.4,10.4,30.8,23.9
		C86,40.4,86.3,44,87,47.5C87,47.9,87,48.4,87,48.9z"/>
	<path class="st0" d="M64.5,87c-3.6-0.1-7.7-1.8-11.7-4.1c-7.6-4.3-13.9-10.2-20-16.3c-5.9-6-11.6-12.2-15.8-19.6
		c-2.4-4.2-4.2-8.5-4-13.5c0.2-5.4,4.4-11.5,9.5-13.5c2.7-1.1,4.4-0.5,5.9,2c2.7,4.6,5.3,9.2,8.1,13.8c1.1,1.8,1.1,3.4,0,5.1
		c-1.1,1.6-2,3.4-3,5c-1.1,1.9-1,3.2,0.3,4.9c4.5,5.8,9.6,10.9,15.4,15.4c1.7,1.3,3,1.4,4.9,0.3c1.8-1,3.6-2.1,5.4-3.2
		c1.5-0.9,2.9-0.9,4.4-0.1c4.9,2.9,9.7,5.7,14.6,8.6c2,1.2,2.5,2.9,1.7,5.2C78.2,82.6,71.8,87,64.5,87z"/>
	<path class="st0" d="M74,47.9c0,2.2-1.2,3.7-3.1,3.8c-1.9,0.1-3.2-1.3-3.3-3.5c-0.4-8.9-6.9-15.4-15.7-15.8
		c-2.2-0.1-3.6-1.4-3.5-3.3c0.1-1.9,1.6-3.2,3.7-3.1C63.9,26.1,73.8,36,74,47.9z"/>
	<path class="st0" d="M51.9,38.8c5,0.1,9.3,4.4,9.3,9.4c0,1.9-1.3,3.4-3.1,3.5c-1.8,0.1-3.1-1.2-3.3-3.1c-0.2-2.2-1.2-3.1-3.4-3.3
		c-1.9-0.2-3.1-1.6-3-3.4C48.4,40.1,49.9,38.8,51.9,38.8z"/>
</g>
</svg>
