<?xml version="1.0" encoding="utf-8"?>
<!-- Generator: Adobe Illustrator 22.1.0, SVG Export Plug-In . SVG Version: 6.00 Build 0)  -->
<svg version="1.1" id="Capa_1" xmlns="http://www.w3.org/2000/svg" xmlns:xlink="http://www.w3.org/1999/xlink" x="0px" y="0px"
	 viewBox="0 0 100 100" style="enable-background:new 0 0 100 100;" xml:space="preserve">
<style type="text/css">
	.st0{fill:#AAAAAA;}
	.st1{fill:none;stroke:#AAAAAA;stroke-width:6;stroke-linecap:round;stroke-miterlimit:10;}
</style>
<path class="st0" d="M51.3,8c1.3,0.2,2.6,0.4,3.8,0.7c13,3,20.6,15.8,17,28.6c-1.8,6.4-4.9,12.3-8.6,17.7
	c-3.2,4.7-6.7,9.3-10.1,13.9c-2,2.6-4.6,2.6-6.7,0c-6.5-8-12.5-16.3-16.7-25.8c-1.7-3.9-3.1-8-3.1-12.3c0-11.6,9-21.5,20.7-22.6
	c0.3,0,0.7-0.1,1-0.2C49.5,8,50.4,8,51.3,8z M50,39.1c4.5,0,8.2-3.6,8.2-8.1s-3.7-8.2-8.3-8.2c-4.5,0-8.2,3.6-8.2,8.1
	S45.4,39.1,50,39.1z"/>
<path class="st1" d="M69.5,68.3c7.3,1.9,12,4.9,12,8.3c0,5.9-14.3,10.6-31.9,10.6s-31.9-4.8-31.9-10.6c0-3.5,5.1-6.6,13-8.6"/>
</svg>
